# xmcd CD database file
#
# Track frame offsets:
#	150
#	29024
#	54034
#	73725
#	99806
#	125958
#	144007
#	164557
#	191329
#	212820
#	240083
#	262933
#	292695
#
# Disc length: 4168 seconds
#
# Revision: 0
# Processed by: cddbd v1.5.2PL0 Copyright (c) Steve Scherf et al.
# Submitted via: CDex 1.51
#
DISCID=ac10460d
DTITLE=Various Artist - JAZZ MAGAZINE Nr. 48
DYEAR=2006
DGENRE=Jazz
TTITLE0=JERRY BERGONZI - Acookarache
TTITLE1=DAVE BURRELL - Black Robert
TTITLE2=KIM CHONG - Fragile
TTITLE3=HAMIET BLUIETT - Tranquil Beauty
TTITLE4=GROOVE COLLECTION - Forgotten Travelers
TTITLE5=MICHAEL MARCUS TRIO - Road Dog
TTITLE6=LISA WAHLANDT and MULO FRANCEL - Recado Bossa Nova
TTITLE7=DADO MORONI - ENRICO PIERANUNZI - St Thomas
TTITLE8=CRISTINA ZAVALLONI - Nati Per Adeguarsi
TTITLE9=BILLY COBHAM - Take Seven
TTITLE10=CRISTIANA POLGERI - Arrivederci
TTITLE11=BEN ALLISON - Tricky Dicky 
TTITLE12=ROBERTO OCCHIPINTI - Pietro Azul
EXTD=YEAR: 2006
EXTT0=
EXTT1=
EXTT2=
EXTT3=
EXTT4=
EXTT5=
EXTT6=
EXTT7=
EXTT8=
EXTT9=
EXTT10=
EXTT11=
EXTT12=
PLAYORDER=
